<?xml version="1.0" encoding="UTF-8"?>
<svg version="1.1" viewBox="0 0 2048 1180" width="628" height="362" xmlns="http://www.w3.org/2000/svg">
<path transform="translate(0)" d="m0 0h2048v1180h-2048z" fill="#FDFCFC"/>
<path transform="translate(845,65)" d="m0 0h10l7 8 2 5-1 5-1 4 10 13 13 15 36 42 11 12 7 8 9 11 9 10 9 11 10 11 9 11 9 10 9 11 10 11 9 11 3 2 27 3 94-94 8-7 15-15 6-7 8-7 9-10 13-13v-9l4-6 2-1h9l7 8-1 7-4 5-5 2-6-1-11 11-7 8-7 7-7 8-8 8-7 8-24 26-4 5-2 3-7 6-15 16-3 4h-2l-2 4-10 10-7 8-9 9-1 2h-2l-2 4-3 3 21 3 94 11 48 6 9 2 5 3 4 7 4 26 4 38 8 73 1 7 6 57 4 35 1 2v9l5 44v3l-25 3-26 3-2 1-15 1-81 9-2 1-16 1-108 12-64 7-34 4-43 4-5-1-9-99-7-89-6-63-3-39-1-7-1-19-4-50-2-20-4-3-7-2h-10l-10 3-6 4-3 3-2 7-8 59-2 17-2 11-10 68-2 14v5l1 2h-3l-1 13-12 80-8 56-4 24-1 2-4 1h-17l1-11 8-41 5-29 9-50 8-46 5-25 9-49 4-24 5-25 11-59 3-5 4-5h2v-2l12-6 4-1h23l13 1 21 3 71 9h6l1 1 52 6 3 1-6-9-4-5-2-1-4-7-11-13-12-16-11-13-5-7-3-3-8-11-10-13-9-11-12-16-28-36-14-17-2-2h-13l-6-10v-9l7-8z" fill="#FD6B39"/>
<path transform="translate(961,337)" d="m0 0h13l196 17 12 2 8 4 7 8 4 12 6 49 11 92v14l-3 8-6 8-8 5-9 2-181 15-11 1h-14l-11-4-8-7-4-8-3-15-19-151-2-15v-16l5-9 8-8z" fill="#FDFDFD"/>
<path transform="translate(1453,747)" d="m0 0h36l3 8 12 45 7 29 1 1 13-47 11-35 1-1h35l3 5 10 34 10 35 2 9h2l1-9 12-44 7-29 3-1h25l11 1-14 50-10 36-2 10-3 8-7 29-3 10-2 1h-37l-3-7-12-39-7-23-3-11-2 6-12 39-10 32-2 3h-37l-2-3-10-38-3-8-2-10-19-70-3-11z" fill="#FD6B39"/>
<path transform="translate(286,747)" d="m0 0h34l4 4 15 25 13 21v2h2l4 9h2l13-22 19-32 5-6 19-1h16l1 1v95 3l-1 46h-32l-3-1-1-48 1-27-4 4-8 14-13 22-7 10-5 4-6-2-14-23-16-27-1-2-1 26 1 2-1 8-1 40h-34l-1-1-1-48v-95z" fill="#FD6B39"/>
<path transform="translate(808,287)" d="m0 0h1l1 14 1 53h11l1-62h1l2 17 3 40 1 5 4 2h-5l2 22 7 74 2 2h-2l2 23 8 115 3 36v10l-23 2-3-2-1-88v-96l-4-2h4l-1-13v-83h-13l1 60v36h5l-3 2h-2l1 12v84l3 1-2 1v82l-25 2v-14l7-122 2-45-4-2 4-1 1-6 4-62 1-27h-11l-3 40-2 36v21l-1 3-6 93 2 1-2 1-5 75-7 2-19 1v-9l12-90 9-68 4-30 10-73 1-4-3-1h3l3-25 4-34 2 1v18l-2 30-1 9h12l1-1 3-54z" fill="#FE6C3A"/>
<path transform="translate(705,744)" d="m0 0h14l14 3 12 5 13 8 12 11 2 4-16 13-11 9-4-2-9-8-8-4-4-1h-15l-11 4-11 8-7 12-2 8v11l4 12 3 5 2 1 3 5 9 6 10 4h14l10-4 8-6 3-4h-35v-34h81v24l-1 10-9 17-7 9-9 9-11 7-8 4-14 4-4 1h-23l-17-5-13-7-11-9-8-9-3-5-2-1-5-14-2-6-3-17 1-15 4-15 6-12 8-10 9-9 11-7 16-7 6-2z" fill="#FE6C3A"/>
<path transform="translate(1153,747)" d="m0 0h10l3 1 7 11 11 17 14 22 12 18 1 1v-50l1-19 1-1h22l13 1 1 96-1 47-1 1-15 1-14-1-7-9-13-21-12-18-10-16-7-11-2-5h-2l1 4v25l1 3-1 11-1 37h-35l-1-12v-132z" fill="#FE6C3A"/>
<path transform="translate(946,327)" d="m0 0h26l28 3 34 3 25 2 32 3 42 4 41 4 15 2 8 4 9 8 4 10 3 16 7 59 7 62 3 32-2 12-7 11-7 5-6 2-9 2-81 7-36 3-30 2-23 2-38 3h-12l-10-2-10-5-6-7-3-6-4-19-4-26-8-68-5-37-6-47v-23l7-11 7-6zm15 10-10 5-8 8-4 8v16l13 102 9 70 3 12 6 8 5 4 11 4h14l143-12 49-4 9-2 8-5 7-9 2-7v-14l-11-92-6-49-4-12-7-8-8-4-12-2-106-9-90-8z" fill="#DA4016"/>
<path transform="translate(885,748)" d="m0 0h38l5 10 11 29 13 36 7 19 4 10 13 37v3h-38l-4-10-5-14v-2l-48 1-4 10-6 14-1 1h-37l-1-3 11-30 15-40 17-46 7-19z" fill="#FE6C3A"/>
<path transform="translate(497,747)" d="m0 0h91l1 2-1 32h-55v19h50l1 1v13l-1 20h-45l-5-1 1 10 1 2h-2v13h56l1 1v16l-1 17h-89l-3-1-1-49z" fill="#FD6B39"/>
<path transform="translate(1312,747)" d="m0 0h91l1 2-1 32h-55v19h50l1 1-1 32-20 1h-19l-11-1 1 12-1 13h56l1 4-1 30h-90l-2-1-1-49z" fill="#FD6B39"/>
<path transform="translate(1752,744)" d="m0 0h11l12 2 16 8 12 11 7 10-1 4-22 13-6 3-3-1-4-5v-2l-4-2-5-3h-11l-6 3-1 2v6l10 6 27 10 13 7 8 7 6 10 4 10v15l-4 11-7 10-8 7-10 5-13 4h-25l-16-5-11-6-11-11-6-10 1-5 14-9 9-5 2-2 6 1 1 4 6 7 8 4 13 1 9-3 4-4v-8l-4-2-12-5-23-8-13-7-6-5-7-11-3-12v-12l4-13 8-11 14-9 11-4z" fill="#FE6C3A"/>
<path transform="translate(1403,967)" d="m0 0 15 1 13 4 10 6 7 6 7 11 4 10 3 16-1 14-4 13-6 11-9 9-14 9-11 2h-21l-13-4-10-6-10-10-8-16-3-14v-12l4-16 6-12 7-8 14-9 12-4z" fill="#FE6C3A"/>
<path transform="translate(346,967)" d="m0 0h9l16 4 13 7 8 8 6 10 4 10 2 10v23l-5 10-5 9-8 9-11 7-13 5-11 1-13-1-14-5-10-7-5-4-7-10-6-14-1-7v-18l3-12 6-12 10-11 14-8 11-3z" fill="#FE6C3A"/>
<path transform="translate(104,971)" d="m0 0h26l4 9 17 53 1 2 3-8 4-12 9-24 7-20h22l9 24 14 40 2-4 14-43 5-16 1-1h27l-3 11-14 43-12 36-6 15h-26l-4-9-10-28-7-21v-2h-2l-2 10-5 15-9 24-5 11-5 1-20-1-3-4-9-28-10-30-13-40z" fill="#FD6B39"/>
<path transform="translate(1625,971)" d="m0 0h56l15 5 10 6 8 8 7 12 2 8 1 9v11l-2 12-2 6-11 14-11 8-13 5-9 1h-50l-1-1z" fill="#FE6C3A"/>
<path transform="translate(1890,971)" d="m0 0h55l16 5 11 7 7 8 6 12 3 11 1 14-1 11-9 17-10 10-11 6-9 3-8 1-27 1-23-1-1-1z" fill="#FE6C3A"/>
<path transform="translate(743,970)" d="m0 0 14 2 12 4 9 6 8 8 7 14 3 11v24h-2l-3 9-6 10-7 7-10 6-15 5-9 1-45-1-1-1-1-103 1-1z" fill="#FE6C3A"/>
<path transform="translate(445,971)" d="m0 0h52l12 4 8 5 8 9 5 12 1 5v13l-4 12-4 8-8 6 2 6 8 12 7 10v3h-28l-7-11-6-9-1-2-20-1 1 22-1 1h-23l-1-1-1-37z" fill="#FD6B39"/>
<path transform="translate(1095,971)" d="m0 0h25l12 13 13 17 22 28 3 3v-60l1-1h24l1 5v64l-1 36h-23l-5-5-8-9-10-13-9-11-13-16-5-7h-1v24l-1 37h-24l-1-1z" fill="#FD6B39"/>
<path transform="translate(1766,971)" d="m0 0h77v23l-52 1v17l41 1 1 1v21l-14 1-28 1v16l28-1h23l1 1v23h-77l-1-39v-65z" fill="#FD6B39"/>
<path transform="translate(954,971)" d="m0 0h25l1 65 5 10 8 6 7 2h9l10-4 5-6 3-7 1-5v-60l1-1h24l1 1v21l-1 47-4 13-7 10-5 6-16 8-7 2h-21l-14-5-9-7-8-9-5-10-3-10z" fill="#FD6B39"/>
<path transform="translate(1244,971)" d="m0 0h77v23h-53l1 24h41l1 1 1 20-1 1h-43v36h-24l-1-30v-74z" fill="#FD6B39"/>
<path transform="translate(576,971)" d="m0 0h24l1 4v62l1 2h-2l1 13h46l7 1-1 23h-76l-1-1-1-103z" fill="#FD6B39"/>
<path transform="translate(1504,971)" d="m0 0h24l1 81 52 1 1 22-1 1-56 1-20-1-1-1-1-37v-66z" fill="#FD6B39"/>
<path transform="translate(347,991)" d="m0 0h6l1 2 7 1 6 4 7 8 3 7 1 5v12l-2 7-5 8-8 7-9 3h-9l-12-5-7-7-3-6-2-5v-17l4-9 7-8 8-5z" fill="#FDFCFC"/>
<path transform="translate(1401,992)" d="m0 0h11l10 4 5 4 6 9 2 6v17l-4 9-5 7-8 5-6 2h-10l-10-4-7-6-6-12-1-4v-11l4-11 6-8 7-5z" fill="#FDFDFD"/>
<path transform="translate(1651,994)" d="m0 0h24l9 3 9 8 4 9 1 13-2 9-6 9-9 6-9 2h-21l-1-1v-57z" fill="#FDFDFD"/>
<path transform="translate(1916,994)" d="m0 0h23l9 3 8 6 5 9 1 4v15l-3 7-5 8-10 6-8 1h-20l-1-1v-57z" fill="#FDFDFD"/>
<path transform="translate(723,994)" d="m0 0h20 4l12 5 8 9 3 11v9l-2 9-6 8-9 6-8 2-2-1-5 1h-14l-2-2v-11l1-2-1-42z" fill="#FDFCFC"/>
<path transform="translate(1055,459)" d="m0 0h12l5 21 1 1 6-22h14l5 20v2h2l1-9 3-12 1-1h12l1 2-8 31-4 12-1 1h-11l-3-5-5-17-6 21-1 1h-11l-3-2-10-39z" fill="#FE6C3A"/>
<path transform="translate(979,374)" d="m0 0h12l6 9 4 7v2l3-3 9-15h12l1 1v44l-1 1h-12l-1-20-7 11-4 2-7-10-2-3v20h-13z" fill="#FE6C3A"/>
<path transform="translate(1036,826)" d="m0 0 36 1v16l2 1-1 1-1 11-36 1-14-1-1-1v-28z" fill="#FE6C3A"/>
<path transform="translate(980,458)" d="m0 0 12 1 7 11 4 7 2 1-1-18 1-1h12v46h-9l-5-5-10-16-2-1 1 14v7l-1 1h-11l-1-1v-45z" fill="#FE6C3A"/>
<path transform="translate(1081,374)" d="m0 0h12l9 5 3 3-1 3-6 4-6-1-2-2h-6l-5 3-3 6 1 6 2 5 4 1h7l3-3h-9l-1-7 1-3 17-1 9 1v10l-5 8-7 6-4 2-9 1-9-3-8-6-4-8-1-10 3-9 5-6z" fill="#FE6C3A"/>
<path transform="translate(1127,374)" d="m0 0h12l7 18 9 26v2h-14l-1-6-14 1-3 5h-13l1-5 9-25 5-14z" fill="#FD6E3D"/>
<path transform="translate(910,521)" d="m0 0h6l7 4v2h3l5 6 2 4v8l-2 7-7 6-7 2h-6l-8-4-5-6-2-4v-13l3-6 3-3z" fill="#DB4117"/>
<path transform="translate(897,436)" d="m0 0h8l8 5 4 5 3 6v12l-3 5-6 4-4 1h-9l-7-4-6-7-2-4v-11l3-6 5-4z" fill="#DB4217"/>
<path transform="translate(471,994)" d="m0 0h21l6 3 5 6 2 5v8l-4 8-6 5-4 1h-20l-1-1v-20z" fill="#FDFDFD"/>
<path transform="translate(886,355)" d="m0 0h7l6 3 5 5 5 6 1 4v11l-5 6-11 4-7-1-6-3-6-7-2-4v-12l4-7 6-4z" fill="#DB4217"/>
<path transform="translate(1023,461)" d="m0 0h28l1 2v9l-17 1v4h11l5 1v10l-3 1h-13l1 4 17 1v10l-1 1h-27l-2-1z" fill="#FE6C3A"/>
<path transform="translate(1032,377)" d="m0 0h29l1 1-1 10-16 1v3l14 1 1 1v10l-15 1v3l16 1 1 1v10h-29l-1-1z" fill="#FE6C3A"/>
<path transform="translate(1129,459)" d="m0 0h14l8 6 1 3-6 5h-6l-3-2h-3v2l12 5 5 4 3 6v6l-4 6-6 4-3 1h-10l-9-5-3-4 2-4 5-4 5 2 4 3 4-1v-3l-14-6-4-5v-10l3-5z" fill="#FE6C3A"/>
<path transform="translate(840,1054)" d="m0 0 7 6 11 7 1 4-14 17-4 8-4 1-3 1-10-7-4-3 2-5 9-16 6-10 3-1z" fill="#FE6C3A"/>
<path transform="translate(912,527)" d="m0 0 8 1 6 5 2 5v7l-3 5-4 3h-9l-6-4-3-4-1-8 3-5 4-4z" fill="#FDFDFD"/>
<path transform="translate(898,442)" d="m0 0h7l7 4 3 5v10l-5 6-2 1h-7l-6-3-4-5-1-2v-9l4-5z" fill="#FDFDFD"/>
<path transform="translate(889,361)" d="m0 0 7 1 6 4 3 5v9l-4 5-3 2h-7l-7-4-4-5-1-6 2-5 5-5z" fill="#FDFDFD"/>
<path transform="translate(904,801)" d="m0 0 2 2 10 27v3h-23l-1-2 7-17 4-12z" fill="#FDFDFD"/>
<path transform="translate(876,111)" d="m0 0h3l4 2 9 10 3 4-1 3-4-2-3-2v-2h-2l-7-8z" fill="#E85124"/>
<path transform="translate(876,111)" d="m0 0h3l4 2 4 4-2 4-6-4-3-4z" fill="#EA5426"/>
</svg>
